# xmcd CD database file
# Copyright (C) 1997 Ti Kan
# 
# Track frame offsets:
#     150
#     15125
#     29148
#     41063
#     55148
#     65523
#     79628
#     94558
#     104195
#     118898
# 
# Disc length: 1756 seconds
# 
# Revision: 1
# Processed by: cddbd v1.4b41PL1 Copyright (c) Steve Scherf et al.
# Submitted via: DiscPlay 4.0.3
# 
DISCID=8206da0a
DTITLE=Asleep At The Wheel - The Swingin' Best Of Asleep At The Wheel
DYEAR=1900
DGENRE=
TTITLE0=Chattanooga Choo Choo
TTITLE1=Coast To Coast
TTITLE2=Way Down Texas Way
TTITLE3=String Of Pars
TTITLE4=Blowin' Like A Bandit
TTITLE5=House Of Blue Lights
TTITLE6=Boogie Back To Texas
TTITLE7=Tulsa Straight Ahead
TTITLE8=Choo Choo CH'Boogie
TTITLE9=Don't Ask Me Why (I'm Going TO Texas)
EXTD=
EXTT0=
EXTT1=
EXTT2=
EXTT3=
EXTT4=
EXTT5=
EXTT6=
EXTT7=
EXTT8=
EXTT9=
PLAYORDER=
